<svg width="432" height="500" viewBox="0 0 432 500" fill="none" xmlns="http://www.w3.org/2000/svg">
<g clip-path="url(#clip0_249_165)">
<path fill-rule="evenodd" clip-rule="evenodd" d="M0.140381 21.5517C0.140381 33.4544 9.78941 43.1035 21.6921 43.1035H281.059C340.626 43.1035 388.915 91.4132 388.915 151.006C388.915 210.598 340.626 258.908 281.059 258.908H165.59C142.192 258.908 123.223 277.884 123.223 301.293C123.223 324.702 142.192 343.678 165.59 343.678H307.837C352.615 343.678 388.915 379.994 388.915 424.791V448.276C388.915 453.037 385.057 456.897 380.298 456.897C375.539 456.897 371.681 453.037 371.681 448.276V424.791C371.681 389.516 343.097 360.92 307.837 360.92H165.59C132.673 360.92 105.989 334.224 105.989 301.293C105.989 268.362 132.673 241.667 165.59 241.667H281.059C331.108 241.667 371.681 201.076 371.681 151.006C371.681 100.935 331.108 60.3448 281.059 60.3448H21.6921C9.78943 60.3448 0.140381 69.9939 0.140381 81.8965V81.8965C0.140381 93.7992 9.78941 103.448 21.6921 103.448H281.059C307.313 103.448 328.596 124.74 328.596 151.006C328.596 177.271 307.313 198.563 281.059 198.563H165.59C108.878 198.563 62.9043 244.557 62.9043 301.293C62.9043 358.029 108.878 404.023 165.59 404.023H307.837C319.301 404.023 328.596 413.321 328.596 424.791V448.276C328.596 476.843 351.743 500 380.298 500C408.852 500 432 476.843 432 448.276V424.791C432 356.189 376.41 300.575 307.837 300.575H301.965C375.433 290.391 432 227.307 432 151.006C432 67.6075 364.421 0 281.059 0L21.6921 0C9.78943 0 0.140381 9.64904 0.140381 21.5517V21.5517Z" fill="url(#paint0_linear_249_165)"/>
</g>
<defs>
<linearGradient id="paint0_linear_249_165" x1="-72.9666" y1="-40.942" x2="294.69" y2="682.954" gradientUnits="userSpaceOnUse">
<stop stop-color="#009DFF"/>
<stop offset="1" stop-color="#B700C0"/>
</linearGradient>
<clipPath id="clip0_249_165">
<rect width="432" height="500" fill="white"/>
</clipPath>
</defs>
</svg>
